<mxfile host="app.diagrams.net" modified="2024-03-13T09:32:34.366Z" agent="Mozilla/5.0 (X11; Linux x86_64) AppleWebKit/537.36 (KHTML, like Gecko) Chrome/119.0.0.0 Safari/537.36" etag="ICkzfbm1czb-u_foclC2" version="24.0.5" type="google">
  <diagram name="PÃ¡gina-1" id="kUIK5C9muk9pUp-iSUwJ">
    <mxGraphModel grid="0" page="0" gridSize="10" guides="1" tooltips="1" connect="1" arrows="1" fold="1" pageScale="1" pageWidth="827" pageHeight="1169" math="0" shadow="0">
      <root>
        <mxCell id="0" />
        <mxCell id="1" parent="0" />
        <mxCell id="D8c2JYka4if8BXDGi2vw-1" value="Proyecto" style="swimlane;fontStyle=1;align=center;verticalAlign=top;childLayout=stackLayout;horizontal=1;startSize=26;horizontalStack=0;resizeParent=1;resizeParentMax=0;resizeLast=0;collapsible=1;marginBottom=0;whiteSpace=wrap;html=1;" vertex="1" parent="1">
          <mxGeometry x="-71" y="-222" width="160" height="164" as="geometry" />
        </mxCell>
        <mxCell id="D8c2JYka4if8BXDGi2vw-2" value="- nombre: String" style="text;strokeColor=none;fillColor=none;align=left;verticalAlign=top;spacingLeft=4;spacingRight=4;overflow=hidden;rotatable=0;points=[[0,0.5],[1,0.5]];portConstraint=eastwest;whiteSpace=wrap;html=1;" vertex="1" parent="D8c2JYka4if8BXDGi2vw-1">
          <mxGeometry y="26" width="160" height="26" as="geometry" />
        </mxCell>
        <mxCell id="D8c2JYka4if8BXDGi2vw-4" value="- descripcion: String" style="text;strokeColor=none;fillColor=none;align=left;verticalAlign=top;spacingLeft=4;spacingRight=4;overflow=hidden;rotatable=0;points=[[0,0.5],[1,0.5]];portConstraint=eastwest;whiteSpace=wrap;html=1;" vertex="1" parent="D8c2JYka4if8BXDGi2vw-1">
          <mxGeometry y="52" width="160" height="26" as="geometry" />
        </mxCell>
        <mxCell id="D8c2JYka4if8BXDGi2vw-7" value="- tareas: Tarea[]" style="text;strokeColor=none;fillColor=none;align=left;verticalAlign=top;spacingLeft=4;spacingRight=4;overflow=hidden;rotatable=0;points=[[0,0.5],[1,0.5]];portConstraint=eastwest;whiteSpace=wrap;html=1;" vertex="1" parent="D8c2JYka4if8BXDGi2vw-1">
          <mxGeometry y="78" width="160" height="26" as="geometry" />
        </mxCell>
        <mxCell id="D8c2JYka4if8BXDGi2vw-3" value="" style="line;strokeWidth=1;fillColor=none;align=left;verticalAlign=middle;spacingTop=-1;spacingLeft=3;spacingRight=3;rotatable=0;labelPosition=right;points=[];portConstraint=eastwest;strokeColor=inherit;" vertex="1" parent="D8c2JYka4if8BXDGi2vw-1">
          <mxGeometry y="104" width="160" height="8" as="geometry" />
        </mxCell>
        <mxCell id="FgbwJfhC_p-mnopBHokt-33" value="- altaTarea(Tarea): Boolean" style="text;strokeColor=none;fillColor=none;align=left;verticalAlign=top;spacingLeft=4;spacingRight=4;overflow=hidden;rotatable=0;points=[[0,0.5],[1,0.5]];portConstraint=eastwest;whiteSpace=wrap;html=1;" vertex="1" parent="D8c2JYka4if8BXDGi2vw-1">
          <mxGeometry y="112" width="160" height="26" as="geometry" />
        </mxCell>
        <mxCell id="FgbwJfhC_p-mnopBHokt-37" value="- bajaTarea(Tarea): Boolean" style="text;strokeColor=none;fillColor=none;align=left;verticalAlign=top;spacingLeft=4;spacingRight=4;overflow=hidden;rotatable=0;points=[[0,0.5],[1,0.5]];portConstraint=eastwest;whiteSpace=wrap;html=1;" vertex="1" parent="D8c2JYka4if8BXDGi2vw-1">
          <mxGeometry y="138" width="160" height="26" as="geometry" />
        </mxCell>
        <mxCell id="D8c2JYka4if8BXDGi2vw-9" value="Tarea" style="swimlane;fontStyle=1;align=center;verticalAlign=top;childLayout=stackLayout;horizontal=1;startSize=26;horizontalStack=0;resizeParent=1;resizeParentMax=0;resizeLast=0;collapsible=1;marginBottom=0;whiteSpace=wrap;html=1;" vertex="1" parent="1">
          <mxGeometry x="179" y="-156" width="272" height="190" as="geometry" />
        </mxCell>
        <mxCell id="D8c2JYka4if8BXDGi2vw-10" value="- nombre: String" style="text;strokeColor=none;fillColor=none;align=left;verticalAlign=top;spacingLeft=4;spacingRight=4;overflow=hidden;rotatable=0;points=[[0,0.5],[1,0.5]];portConstraint=eastwest;whiteSpace=wrap;html=1;" vertex="1" parent="D8c2JYka4if8BXDGi2vw-9">
          <mxGeometry y="26" width="272" height="26" as="geometry" />
        </mxCell>
        <mxCell id="D8c2JYka4if8BXDGi2vw-11" value="- descripcion: String" style="text;strokeColor=none;fillColor=none;align=left;verticalAlign=top;spacingLeft=4;spacingRight=4;overflow=hidden;rotatable=0;points=[[0,0.5],[1,0.5]];portConstraint=eastwest;whiteSpace=wrap;html=1;" vertex="1" parent="D8c2JYka4if8BXDGi2vw-9">
          <mxGeometry y="52" width="272" height="26" as="geometry" />
        </mxCell>
        <mxCell id="D8c2JYka4if8BXDGi2vw-12" value="- horasE: int" style="text;strokeColor=none;fillColor=none;align=left;verticalAlign=top;spacingLeft=4;spacingRight=4;overflow=hidden;rotatable=0;points=[[0,0.5],[1,0.5]];portConstraint=eastwest;whiteSpace=wrap;html=1;" vertex="1" parent="D8c2JYka4if8BXDGi2vw-9">
          <mxGeometry y="78" width="272" height="26" as="geometry" />
        </mxCell>
        <mxCell id="D8c2JYka4if8BXDGi2vw-15" value="- empleados: Empleado[]" style="text;strokeColor=none;fillColor=none;align=left;verticalAlign=top;spacingLeft=4;spacingRight=4;overflow=hidden;rotatable=0;points=[[0,0.5],[1,0.5]];portConstraint=eastwest;whiteSpace=wrap;html=1;" vertex="1" parent="D8c2JYka4if8BXDGi2vw-9">
          <mxGeometry y="104" width="272" height="26" as="geometry" />
        </mxCell>
        <mxCell id="D8c2JYka4if8BXDGi2vw-13" value="" style="line;strokeWidth=1;fillColor=none;align=left;verticalAlign=middle;spacingTop=-1;spacingLeft=3;spacingRight=3;rotatable=0;labelPosition=right;points=[];portConstraint=eastwest;strokeColor=inherit;" vertex="1" parent="D8c2JYka4if8BXDGi2vw-9">
          <mxGeometry y="130" width="272" height="8" as="geometry" />
        </mxCell>
        <mxCell id="FgbwJfhC_p-mnopBHokt-38" value="- asignarEmpleados(Empleado): Boolean" style="text;strokeColor=none;fillColor=none;align=left;verticalAlign=top;spacingLeft=4;spacingRight=4;overflow=hidden;rotatable=0;points=[[0,0.5],[1,0.5]];portConstraint=eastwest;whiteSpace=wrap;html=1;" vertex="1" parent="D8c2JYka4if8BXDGi2vw-9">
          <mxGeometry y="138" width="272" height="26" as="geometry" />
        </mxCell>
        <mxCell id="FgbwJfhC_p-mnopBHokt-40" value="- desasignarEmpleados(Empleado): Boolean" style="text;strokeColor=none;fillColor=none;align=left;verticalAlign=top;spacingLeft=4;spacingRight=4;overflow=hidden;rotatable=0;points=[[0,0.5],[1,0.5]];portConstraint=eastwest;whiteSpace=wrap;html=1;" vertex="1" parent="D8c2JYka4if8BXDGi2vw-9">
          <mxGeometry y="164" width="272" height="26" as="geometry" />
        </mxCell>
        <mxCell id="D8c2JYka4if8BXDGi2vw-16" value="Empleado" style="swimlane;fontStyle=1;align=center;verticalAlign=top;childLayout=stackLayout;horizontal=1;startSize=26;horizontalStack=0;resizeParent=1;resizeParentMax=0;resizeLast=0;collapsible=1;marginBottom=0;whiteSpace=wrap;html=1;" vertex="1" parent="1">
          <mxGeometry x="-51" y="-21" width="160" height="60" as="geometry" />
        </mxCell>
        <mxCell id="D8c2JYka4if8BXDGi2vw-17" value="- nombre: String" style="text;strokeColor=none;fillColor=none;align=left;verticalAlign=top;spacingLeft=4;spacingRight=4;overflow=hidden;rotatable=0;points=[[0,0.5],[1,0.5]];portConstraint=eastwest;whiteSpace=wrap;html=1;" vertex="1" parent="D8c2JYka4if8BXDGi2vw-16">
          <mxGeometry y="26" width="160" height="26" as="geometry" />
        </mxCell>
        <mxCell id="D8c2JYka4if8BXDGi2vw-21" value="" style="line;strokeWidth=1;fillColor=none;align=left;verticalAlign=middle;spacingTop=-1;spacingLeft=3;spacingRight=3;rotatable=0;labelPosition=right;points=[];portConstraint=eastwest;strokeColor=inherit;" vertex="1" parent="D8c2JYka4if8BXDGi2vw-16">
          <mxGeometry y="52" width="160" height="8" as="geometry" />
        </mxCell>
        <mxCell id="D8c2JYka4if8BXDGi2vw-23" style="edgeStyle=none;curved=1;rounded=0;orthogonalLoop=1;jettySize=auto;html=1;exitX=0.25;exitY=0;exitDx=0;exitDy=0;fontSize=12;startSize=8;endSize=8;" edge="1" parent="1" source="D8c2JYka4if8BXDGi2vw-9" target="D8c2JYka4if8BXDGi2vw-9">
          <mxGeometry relative="1" as="geometry" />
        </mxCell>
        <mxCell id="D8c2JYka4if8BXDGi2vw-24" value="" style="endArrow=diamondThin;endFill=1;endSize=24;html=1;rounded=0;fontSize=12;entryX=1;entryY=0.5;entryDx=0;entryDy=0;exitX=0.006;exitY=0.104;exitDx=0;exitDy=0;exitPerimeter=0;" edge="1" parent="1" source="D8c2JYka4if8BXDGi2vw-9" target="D8c2JYka4if8BXDGi2vw-7">
          <mxGeometry width="160" relative="1" as="geometry">
            <mxPoint x="69" y="109" as="sourcePoint" />
            <mxPoint x="229" y="109" as="targetPoint" />
          </mxGeometry>
        </mxCell>
        <mxCell id="D8c2JYka4if8BXDGi2vw-26" value="" style="endArrow=diamondThin;endFill=0;endSize=24;html=1;rounded=0;fontSize=12;entryX=0;entryY=0.5;entryDx=0;entryDy=0;exitX=1;exitY=0.25;exitDx=0;exitDy=0;" edge="1" parent="1" source="D8c2JYka4if8BXDGi2vw-16" target="D8c2JYka4if8BXDGi2vw-15">
          <mxGeometry width="160" relative="1" as="geometry">
            <mxPoint x="319" y="240" as="sourcePoint" />
            <mxPoint x="479" y="240" as="targetPoint" />
          </mxGeometry>
        </mxCell>
        <mxCell id="FgbwJfhC_p-mnopBHokt-1" value="Proyecto" style="swimlane;fontStyle=1;align=center;verticalAlign=top;childLayout=stackLayout;horizontal=1;startSize=26;horizontalStack=0;resizeParent=1;resizeParentMax=0;resizeLast=0;collapsible=1;marginBottom=0;whiteSpace=wrap;html=1;" vertex="1" parent="1">
          <mxGeometry x="-74" y="108" width="160" height="164" as="geometry" />
        </mxCell>
        <mxCell id="FgbwJfhC_p-mnopBHokt-2" value="- nombre: String" style="text;strokeColor=none;fillColor=none;align=left;verticalAlign=top;spacingLeft=4;spacingRight=4;overflow=hidden;rotatable=0;points=[[0,0.5],[1,0.5]];portConstraint=eastwest;whiteSpace=wrap;html=1;" vertex="1" parent="FgbwJfhC_p-mnopBHokt-1">
          <mxGeometry y="26" width="160" height="26" as="geometry" />
        </mxCell>
        <mxCell id="FgbwJfhC_p-mnopBHokt-3" value="- descripcion: String" style="text;strokeColor=none;fillColor=none;align=left;verticalAlign=top;spacingLeft=4;spacingRight=4;overflow=hidden;rotatable=0;points=[[0,0.5],[1,0.5]];portConstraint=eastwest;whiteSpace=wrap;html=1;" vertex="1" parent="FgbwJfhC_p-mnopBHokt-1">
          <mxGeometry y="52" width="160" height="26" as="geometry" />
        </mxCell>
        <mxCell id="FgbwJfhC_p-mnopBHokt-4" value="- tareas: Tarea[]" style="text;strokeColor=none;fillColor=none;align=left;verticalAlign=top;spacingLeft=4;spacingRight=4;overflow=hidden;rotatable=0;points=[[0,0.5],[1,0.5]];portConstraint=eastwest;whiteSpace=wrap;html=1;" vertex="1" parent="FgbwJfhC_p-mnopBHokt-1">
          <mxGeometry y="78" width="160" height="26" as="geometry" />
        </mxCell>
        <mxCell id="FgbwJfhC_p-mnopBHokt-5" value="" style="line;strokeWidth=1;fillColor=none;align=left;verticalAlign=middle;spacingTop=-1;spacingLeft=3;spacingRight=3;rotatable=0;labelPosition=right;points=[];portConstraint=eastwest;strokeColor=inherit;" vertex="1" parent="FgbwJfhC_p-mnopBHokt-1">
          <mxGeometry y="104" width="160" height="8" as="geometry" />
        </mxCell>
        <mxCell id="FgbwJfhC_p-mnopBHokt-48" value="- altaTarea(Tarea): Boolean" style="text;strokeColor=none;fillColor=none;align=left;verticalAlign=top;spacingLeft=4;spacingRight=4;overflow=hidden;rotatable=0;points=[[0,0.5],[1,0.5]];portConstraint=eastwest;whiteSpace=wrap;html=1;" vertex="1" parent="FgbwJfhC_p-mnopBHokt-1">
          <mxGeometry y="112" width="160" height="26" as="geometry" />
        </mxCell>
        <mxCell id="FgbwJfhC_p-mnopBHokt-49" value="- bajaTarea(Tarea): Boolean" style="text;strokeColor=none;fillColor=none;align=left;verticalAlign=top;spacingLeft=4;spacingRight=4;overflow=hidden;rotatable=0;points=[[0,0.5],[1,0.5]];portConstraint=eastwest;whiteSpace=wrap;html=1;" vertex="1" parent="FgbwJfhC_p-mnopBHokt-1">
          <mxGeometry y="138" width="160" height="26" as="geometry" />
        </mxCell>
        <mxCell id="FgbwJfhC_p-mnopBHokt-6" value="Tarea" style="swimlane;fontStyle=1;align=center;verticalAlign=top;childLayout=stackLayout;horizontal=1;startSize=26;horizontalStack=0;resizeParent=1;resizeParentMax=0;resizeLast=0;collapsible=1;marginBottom=0;whiteSpace=wrap;html=1;" vertex="1" parent="1">
          <mxGeometry x="164" y="185" width="288" height="164" as="geometry" />
        </mxCell>
        <mxCell id="FgbwJfhC_p-mnopBHokt-7" value="- nombre: String" style="text;strokeColor=none;fillColor=none;align=left;verticalAlign=top;spacingLeft=4;spacingRight=4;overflow=hidden;rotatable=0;points=[[0,0.5],[1,0.5]];portConstraint=eastwest;whiteSpace=wrap;html=1;" vertex="1" parent="FgbwJfhC_p-mnopBHokt-6">
          <mxGeometry y="26" width="288" height="26" as="geometry" />
        </mxCell>
        <mxCell id="FgbwJfhC_p-mnopBHokt-8" value="- descripcion: String" style="text;strokeColor=none;fillColor=none;align=left;verticalAlign=top;spacingLeft=4;spacingRight=4;overflow=hidden;rotatable=0;points=[[0,0.5],[1,0.5]];portConstraint=eastwest;whiteSpace=wrap;html=1;" vertex="1" parent="FgbwJfhC_p-mnopBHokt-6">
          <mxGeometry y="52" width="288" height="26" as="geometry" />
        </mxCell>
        <mxCell id="FgbwJfhC_p-mnopBHokt-9" value="- horasE: int" style="text;strokeColor=none;fillColor=none;align=left;verticalAlign=top;spacingLeft=4;spacingRight=4;overflow=hidden;rotatable=0;points=[[0,0.5],[1,0.5]];portConstraint=eastwest;whiteSpace=wrap;html=1;" vertex="1" parent="FgbwJfhC_p-mnopBHokt-6">
          <mxGeometry y="78" width="288" height="26" as="geometry" />
        </mxCell>
        <mxCell id="FgbwJfhC_p-mnopBHokt-11" value="" style="line;strokeWidth=1;fillColor=none;align=left;verticalAlign=middle;spacingTop=-1;spacingLeft=3;spacingRight=3;rotatable=0;labelPosition=right;points=[];portConstraint=eastwest;strokeColor=inherit;" vertex="1" parent="FgbwJfhC_p-mnopBHokt-6">
          <mxGeometry y="104" width="288" height="8" as="geometry" />
        </mxCell>
        <mxCell id="FgbwJfhC_p-mnopBHokt-50" value="- asignarEmpleados(Empleado): Boolean" style="text;strokeColor=none;fillColor=none;align=left;verticalAlign=top;spacingLeft=4;spacingRight=4;overflow=hidden;rotatable=0;points=[[0,0.5],[1,0.5]];portConstraint=eastwest;whiteSpace=wrap;html=1;" vertex="1" parent="FgbwJfhC_p-mnopBHokt-6">
          <mxGeometry y="112" width="288" height="26" as="geometry" />
        </mxCell>
        <mxCell id="FgbwJfhC_p-mnopBHokt-51" value="- desasignarEmpleados(Empleado): Boolean" style="text;strokeColor=none;fillColor=none;align=left;verticalAlign=top;spacingLeft=4;spacingRight=4;overflow=hidden;rotatable=0;points=[[0,0.5],[1,0.5]];portConstraint=eastwest;whiteSpace=wrap;html=1;" vertex="1" parent="FgbwJfhC_p-mnopBHokt-6">
          <mxGeometry y="138" width="288" height="26" as="geometry" />
        </mxCell>
        <mxCell id="FgbwJfhC_p-mnopBHokt-12" value="Empleado" style="swimlane;fontStyle=1;align=center;verticalAlign=top;childLayout=stackLayout;horizontal=1;startSize=26;horizontalStack=0;resizeParent=1;resizeParentMax=0;resizeLast=0;collapsible=1;marginBottom=0;whiteSpace=wrap;html=1;" vertex="1" parent="1">
          <mxGeometry x="-82" y="342" width="160" height="86" as="geometry" />
        </mxCell>
        <mxCell id="FgbwJfhC_p-mnopBHokt-13" value="- nombre: String" style="text;strokeColor=none;fillColor=none;align=left;verticalAlign=top;spacingLeft=4;spacingRight=4;overflow=hidden;rotatable=0;points=[[0,0.5],[1,0.5]];portConstraint=eastwest;whiteSpace=wrap;html=1;" vertex="1" parent="FgbwJfhC_p-mnopBHokt-12">
          <mxGeometry y="26" width="160" height="26" as="geometry" />
        </mxCell>
        <mxCell id="FgbwJfhC_p-mnopBHokt-18" value="- tareas[]: Tarea" style="text;strokeColor=none;fillColor=none;align=left;verticalAlign=top;spacingLeft=4;spacingRight=4;overflow=hidden;rotatable=0;points=[[0,0.5],[1,0.5]];portConstraint=eastwest;whiteSpace=wrap;html=1;" vertex="1" parent="FgbwJfhC_p-mnopBHokt-12">
          <mxGeometry y="52" width="160" height="26" as="geometry" />
        </mxCell>
        <mxCell id="FgbwJfhC_p-mnopBHokt-14" value="" style="line;strokeWidth=1;fillColor=none;align=left;verticalAlign=middle;spacingTop=-1;spacingLeft=3;spacingRight=3;rotatable=0;labelPosition=right;points=[];portConstraint=eastwest;strokeColor=inherit;" vertex="1" parent="FgbwJfhC_p-mnopBHokt-12">
          <mxGeometry y="78" width="160" height="8" as="geometry" />
        </mxCell>
        <mxCell id="FgbwJfhC_p-mnopBHokt-15" style="edgeStyle=none;curved=1;rounded=0;orthogonalLoop=1;jettySize=auto;html=1;exitX=0.25;exitY=0;exitDx=0;exitDy=0;fontSize=12;startSize=8;endSize=8;" edge="1" parent="1" source="FgbwJfhC_p-mnopBHokt-6" target="FgbwJfhC_p-mnopBHokt-6">
          <mxGeometry relative="1" as="geometry" />
        </mxCell>
        <mxCell id="FgbwJfhC_p-mnopBHokt-16" value="" style="endArrow=diamondThin;endFill=1;endSize=24;html=1;rounded=0;fontSize=12;entryX=1;entryY=0.5;entryDx=0;entryDy=0;exitX=0.006;exitY=0.104;exitDx=0;exitDy=0;exitPerimeter=0;" edge="1" parent="1" source="FgbwJfhC_p-mnopBHokt-6" target="FgbwJfhC_p-mnopBHokt-4">
          <mxGeometry width="160" relative="1" as="geometry">
            <mxPoint x="63" y="369" as="sourcePoint" />
            <mxPoint x="223" y="369" as="targetPoint" />
          </mxGeometry>
        </mxCell>
        <mxCell id="FgbwJfhC_p-mnopBHokt-17" value="" style="endArrow=diamondThin;endFill=0;endSize=24;html=1;rounded=0;fontSize=12;entryX=1;entryY=0.25;entryDx=0;entryDy=0;" edge="1" parent="1" source="FgbwJfhC_p-mnopBHokt-6" target="FgbwJfhC_p-mnopBHokt-12">
          <mxGeometry width="160" relative="1" as="geometry">
            <mxPoint x="313" y="500" as="sourcePoint" />
            <mxPoint x="409" y="213" as="targetPoint" />
          </mxGeometry>
        </mxCell>
        <mxCell id="FgbwJfhC_p-mnopBHokt-19" value="Empresa" style="swimlane;fontStyle=1;align=center;verticalAlign=top;childLayout=stackLayout;horizontal=1;startSize=26;horizontalStack=0;resizeParent=1;resizeParentMax=0;resizeLast=0;collapsible=1;marginBottom=0;whiteSpace=wrap;html=1;" vertex="1" parent="1">
          <mxGeometry x="-346" y="-219" width="210" height="138" as="geometry" />
        </mxCell>
        <mxCell id="FgbwJfhC_p-mnopBHokt-20" value="- proyectos[]: Proyecto" style="text;strokeColor=none;fillColor=none;align=left;verticalAlign=top;spacingLeft=4;spacingRight=4;overflow=hidden;rotatable=0;points=[[0,0.5],[1,0.5]];portConstraint=eastwest;whiteSpace=wrap;html=1;" vertex="1" parent="FgbwJfhC_p-mnopBHokt-19">
          <mxGeometry y="26" width="210" height="26" as="geometry" />
        </mxCell>
        <mxCell id="FgbwJfhC_p-mnopBHokt-34" value="- empleados[]: Empleado" style="text;strokeColor=none;fillColor=none;align=left;verticalAlign=top;spacingLeft=4;spacingRight=4;overflow=hidden;rotatable=0;points=[[0,0.5],[1,0.5]];portConstraint=eastwest;whiteSpace=wrap;html=1;" vertex="1" parent="FgbwJfhC_p-mnopBHokt-19">
          <mxGeometry y="52" width="210" height="26" as="geometry" />
        </mxCell>
        <mxCell id="FgbwJfhC_p-mnopBHokt-23" value="" style="line;strokeWidth=1;fillColor=none;align=left;verticalAlign=middle;spacingTop=-1;spacingLeft=3;spacingRight=3;rotatable=0;labelPosition=right;points=[];portConstraint=eastwest;strokeColor=inherit;" vertex="1" parent="FgbwJfhC_p-mnopBHokt-19">
          <mxGeometry y="78" width="210" height="8" as="geometry" />
        </mxCell>
        <mxCell id="FgbwJfhC_p-mnopBHokt-31" value="- altaProyecto(Proyecto): Boolean" style="text;strokeColor=none;fillColor=none;align=left;verticalAlign=top;spacingLeft=4;spacingRight=4;overflow=hidden;rotatable=0;points=[[0,0.5],[1,0.5]];portConstraint=eastwest;whiteSpace=wrap;html=1;" vertex="1" parent="FgbwJfhC_p-mnopBHokt-19">
          <mxGeometry y="86" width="210" height="26" as="geometry" />
        </mxCell>
        <mxCell id="FgbwJfhC_p-mnopBHokt-32" value="- bajaProyecto(Proyecto): Boolean" style="text;strokeColor=none;fillColor=none;align=left;verticalAlign=top;spacingLeft=4;spacingRight=4;overflow=hidden;rotatable=0;points=[[0,0.5],[1,0.5]];portConstraint=eastwest;whiteSpace=wrap;html=1;" vertex="1" parent="FgbwJfhC_p-mnopBHokt-19">
          <mxGeometry y="112" width="210" height="26" as="geometry" />
        </mxCell>
        <mxCell id="FgbwJfhC_p-mnopBHokt-24" value="" style="endArrow=diamondThin;endFill=1;endSize=24;html=1;rounded=0;fontSize=12;entryX=1;entryY=0.25;entryDx=0;entryDy=0;exitX=0.019;exitY=0.063;exitDx=0;exitDy=0;exitPerimeter=0;" edge="1" parent="1" target="FgbwJfhC_p-mnopBHokt-19">
          <mxGeometry width="160" relative="1" as="geometry">
            <mxPoint x="-70.04000000000003" y="-183.94399999999996" as="sourcePoint" />
            <mxPoint x="-139.00000000000009" y="-189" as="targetPoint" />
          </mxGeometry>
        </mxCell>
        <mxCell id="FgbwJfhC_p-mnopBHokt-25" value="Empresa" style="swimlane;fontStyle=1;align=center;verticalAlign=top;childLayout=stackLayout;horizontal=1;startSize=26;horizontalStack=0;resizeParent=1;resizeParentMax=0;resizeLast=0;collapsible=1;marginBottom=0;whiteSpace=wrap;html=1;" vertex="1" parent="1">
          <mxGeometry x="-354" y="134" width="216" height="138" as="geometry" />
        </mxCell>
        <mxCell id="FgbwJfhC_p-mnopBHokt-26" value="- proyectos[]: Proyecto" style="text;strokeColor=none;fillColor=none;align=left;verticalAlign=top;spacingLeft=4;spacingRight=4;overflow=hidden;rotatable=0;points=[[0,0.5],[1,0.5]];portConstraint=eastwest;whiteSpace=wrap;html=1;" vertex="1" parent="FgbwJfhC_p-mnopBHokt-25">
          <mxGeometry y="26" width="216" height="26" as="geometry" />
        </mxCell>
        <mxCell id="FgbwJfhC_p-mnopBHokt-53" value="- empleados[]: Empleado" style="text;strokeColor=none;fillColor=none;align=left;verticalAlign=top;spacingLeft=4;spacingRight=4;overflow=hidden;rotatable=0;points=[[0,0.5],[1,0.5]];portConstraint=eastwest;whiteSpace=wrap;html=1;" vertex="1" parent="FgbwJfhC_p-mnopBHokt-25">
          <mxGeometry y="52" width="216" height="26" as="geometry" />
        </mxCell>
        <mxCell id="FgbwJfhC_p-mnopBHokt-27" value="" style="line;strokeWidth=1;fillColor=none;align=left;verticalAlign=middle;spacingTop=-1;spacingLeft=3;spacingRight=3;rotatable=0;labelPosition=right;points=[];portConstraint=eastwest;strokeColor=inherit;" vertex="1" parent="FgbwJfhC_p-mnopBHokt-25">
          <mxGeometry y="78" width="216" height="8" as="geometry" />
        </mxCell>
        <mxCell id="FgbwJfhC_p-mnopBHokt-46" value="- altaProyecto(Proyecto): Boolean" style="text;strokeColor=none;fillColor=none;align=left;verticalAlign=top;spacingLeft=4;spacingRight=4;overflow=hidden;rotatable=0;points=[[0,0.5],[1,0.5]];portConstraint=eastwest;whiteSpace=wrap;html=1;" vertex="1" parent="FgbwJfhC_p-mnopBHokt-25">
          <mxGeometry y="86" width="216" height="26" as="geometry" />
        </mxCell>
        <mxCell id="FgbwJfhC_p-mnopBHokt-47" value="- bajaProyecto(Proyecto): Boolean" style="text;strokeColor=none;fillColor=none;align=left;verticalAlign=top;spacingLeft=4;spacingRight=4;overflow=hidden;rotatable=0;points=[[0,0.5],[1,0.5]];portConstraint=eastwest;whiteSpace=wrap;html=1;" vertex="1" parent="FgbwJfhC_p-mnopBHokt-25">
          <mxGeometry y="112" width="216" height="26" as="geometry" />
        </mxCell>
        <mxCell id="FgbwJfhC_p-mnopBHokt-28" value="" style="endArrow=diamondThin;endFill=1;endSize=24;html=1;rounded=0;fontSize=12;entryX=1;entryY=0.25;entryDx=0;entryDy=0;exitX=-0.012;exitY=0.231;exitDx=0;exitDy=0;exitPerimeter=0;" edge="1" parent="1" source="FgbwJfhC_p-mnopBHokt-2" target="FgbwJfhC_p-mnopBHokt-25">
          <mxGeometry width="160" relative="1" as="geometry">
            <mxPoint x="-133.04000000000002" y="16.05600000000004" as="sourcePoint" />
            <mxPoint x="-138" y="170" as="targetPoint" />
          </mxGeometry>
        </mxCell>
        <mxCell id="FgbwJfhC_p-mnopBHokt-29" value="Opcion 2" style="text;strokeColor=none;fillColor=none;html=1;align=center;verticalAlign=middle;whiteSpace=wrap;rounded=0;fontSize=16;" vertex="1" parent="1">
          <mxGeometry x="-234" y="67" width="60" height="30" as="geometry" />
        </mxCell>
        <mxCell id="FgbwJfhC_p-mnopBHokt-30" value="Opcion 1" style="text;strokeColor=none;fillColor=none;html=1;align=center;verticalAlign=middle;whiteSpace=wrap;rounded=0;fontSize=16;" vertex="1" parent="1">
          <mxGeometry x="-223" y="-258" width="60" height="30" as="geometry" />
        </mxCell>
        <mxCell id="FgbwJfhC_p-mnopBHokt-36" value="" style="endArrow=diamondThin;endFill=1;endSize=24;html=1;rounded=0;fontSize=12;entryX=0.245;entryY=1.12;entryDx=0;entryDy=0;exitX=0.017;exitY=-0.113;exitDx=0;exitDy=0;exitPerimeter=0;entryPerimeter=0;" edge="1" parent="1" source="D8c2JYka4if8BXDGi2vw-17" target="FgbwJfhC_p-mnopBHokt-32">
          <mxGeometry width="160" relative="1" as="geometry">
            <mxPoint x="395.96" y="33.99600000000004" as="sourcePoint" />
            <mxPoint x="329" y="46.94" as="targetPoint" />
          </mxGeometry>
        </mxCell>
        <mxCell id="FgbwJfhC_p-mnopBHokt-52" value="" style="endArrow=diamondThin;endFill=1;endSize=24;html=1;rounded=0;fontSize=12;entryX=0.428;entryY=1.079;entryDx=0;entryDy=0;exitX=0.017;exitY=-0.113;exitDx=0;exitDy=0;exitPerimeter=0;entryPerimeter=0;" edge="1" parent="1" target="FgbwJfhC_p-mnopBHokt-47">
          <mxGeometry width="160" relative="1" as="geometry">
            <mxPoint x="-82" y="358" as="sourcePoint" />
            <mxPoint x="-329" y="278" as="targetPoint" />
          </mxGeometry>
        </mxCell>
      </root>
    </mxGraphModel>
  </diagram>
</mxfile>
